<?xml version="1.0" encoding="UTF-8"?>
<svg class="logo" enable-background="new -56 131 186 40" version="1.1" viewBox="-56 131 186 40" xml:space="preserve" xmlns="http://www.w3.org/2000/svg">
<style type="text/css">
	.st0{fill:#0D405F;}
	.st1{fill:#F54E12;}
</style>
<title>Scribbr logo</title>
	<rect class="st0" x="61" y="146" width="6.3" height="18.7"/>
	<path class="st0" d="m66.7 137.6c-0.3-0.3-0.7-0.6-1.2-0.8-0.4-0.1-0.9-0.2-1.4-0.2s-1 0.1-1.4 0.3c-0.4 0.1-0.8 0.4-1.1 0.7-0.4 0.3-0.6 0.7-0.8 1.1s-0.3 0.8-0.3 1.3c0 0.9 0.4 1.7 1.1 2.4 0.6 0.6 1.5 1 2.5 1 0.5 0 1-0.1 1.4-0.3 0.5-0.2 0.9-0.4 1.2-0.7s0.6-0.7 0.7-1.1c0.2-0.4 0.3-0.9 0.3-1.3 0-0.5-0.1-1-0.3-1.4-0.1-0.4-0.4-0.7-0.7-1z"/>
	<path class="st0" d="m8.5 143.1c0.4-0.2 0.8-0.4 1.2-0.4 0.5-0.1 0.9-0.2 1.3-0.2 0.9 0 1.8 0.2 2.7 0.7 0.9 0.4 1.6 0.9 2.2 1.6l4.2-4.3c-1.2-1.1-2.6-1.9-4.2-2.4-1.6-0.6-3.2-0.9-4.8-0.9-1.2 0-2.5 0.2-3.8 0.5-1.2 0.3-2.3 0.8-3.3 1.5s-1.8 1.5-2.5 2.6c-0.6 1-0.9 2.3-0.9 3.8 0 1.2 0.2 2.2 0.6 3.1 0.4 0.8 0.9 1.5 1.6 2.1 0.6 0.6 1.4 1.1 2.2 1.5 0.8 0.3 1.7 0.7 2.6 0.9 0.9 0.3 1.7 0.6 2.4 0.8 0.7 0.3 1.3 0.5 1.7 0.8 0.5 0.3 0.9 0.6 1.1 1 0.3 0.3 0.4 0.7 0.4 1.2 0 0.6-0.1 1-0.3 1.4s-0.5 0.7-0.8 0.9c-0.4 0.2-0.8 0.4-1.2 0.5-0.5 0.1-1 0.2-1.4 0.2-1.1 0-2.2-0.3-3.3-0.9-1.1-0.5-2-1.2-2.6-2l-4.3 4.3c1.2 1.3 2.7 2.2 4.5 2.9 1.8 0.6 3.7 1 5.7 1 1.3 0 2.6-0.2 3.8-0.6 1.3-0.3 2.4-0.9 3.4-1.6s1.7-1.6 2.3-2.8c0.6-1.1 0.9-2.4 0.9-3.9 0-1.4-0.3-2.5-0.8-3.4-0.6-0.9-1.3-1.6-2.1-2.2s-1.7-1.1-2.7-1.5c-1-0.3-2-0.7-2.9-1-0.6-0.2-1.2-0.4-1.7-0.5-0.5-0.2-1-0.4-1.3-0.7-0.4-0.2-0.7-0.5-0.9-0.8s-0.3-0.6-0.3-1.1 0.1-0.9 0.4-1.3c0.2-0.3 0.5-0.6 0.9-0.8z"/>
	<path class="st0" d="m30.6 151.8c0.3-0.4 0.8-0.8 1.3-1 0.6-0.3 1.2-0.4 1.8-0.4 0.7 0 1.3 0.1 1.9 0.4s1.1 0.6 1.5 1.1l3.6-4.2c-0.4-0.3-0.8-0.7-1.3-1-0.6-0.3-1.1-0.6-1.8-0.8-0.6-0.2-1.2-0.4-1.9-0.5s-1.4-0.2-2.1-0.2c-1.5 0-2.9 0.2-4.2 0.7s-2.4 1.1-3.4 2-1.7 1.9-2.3 3.2c-0.5 1.2-0.8 2.6-0.8 4.1 0 1.6 0.3 3 0.8 4.2 0.6 1.2 1.3 2.3 2.3 3.1 1 0.9 2.1 1.6 3.4 2 1.3 0.5 2.8 0.7 4.3 0.7 1.4 0 2.7-0.2 4-0.7 1.2-0.4 2.2-1 3-1.7l-3.5-4.2c-0.3 0.4-0.9 0.8-1.5 1-0.6 0.3-1.2 0.4-1.9 0.4s-1.3-0.1-1.8-0.4c-0.6-0.2-1.1-0.6-1.5-1-0.4-0.5-0.7-1-0.9-1.6-0.2-0.5-0.3-1.1-0.3-1.8s0.1-1.3 0.3-1.8c0.3-0.6 0.6-1.1 1-1.6z"/>
	<path class="st0" d="m55.8 145.3c-1.2 0-2.2 0.3-3.1 0.9s-1.6 1.4-2.1 2.4h-0.1v-2.8h-6v18.8h6.3v-9.6c0-0.4 0.1-0.8 0.2-1.3 0.2-0.6 0.4-1 0.8-1.4 0.3-0.5 0.8-0.8 1.3-1.1 0.6-0.3 1.3-0.5 2.2-0.5 0.2 0 0.5 0 0.8 0.1 0.2 0 0.5 0 0.8 0.1l0.3-5.5c-0.2 0-0.4 0-0.6-0.1h-0.8z"/>
	<path class="st0" d="m129.3 145.3h-0.7c-1.2 0-2.3 0.3-3.2 0.9-0.8 0.6-1.5 1.4-2 2.4h-0.1v-2.8h-6.1v18.8h6.3v-9.6c0-0.4 0.1-0.8 0.3-1.3 0.1-0.6 0.4-1 0.7-1.4 0.4-0.5 0.8-0.8 1.4-1.1s1.3-0.5 2.1-0.5c0.3 0 0.5 0 0.8 0.1 0.3 0 0.6 0 0.8 0.1l0.3-5.5c-0.1 0-0.3 0-0.6-0.1z"/>
	<path class="st0" d="m71 155.3c0 5.5 4.5 10 10.1 10 5.7 0 10.2-4.5 10.2-10s-4.5-9.9-10.2-9.9c-1.9 0-3.6 0.5-5.1 1.4v-10.3h-5v18.8zm10.1 5.1c-2.5 0-4.6-2.3-4.6-5.1 0-2.7 2.1-5 4.6-5 2.6 0 4.7 2.3 4.7 5 0 2.8-2.1 5.1-4.7 5.1z"/>
	<path class="st0" d="m94.2 155.4c0 5.5 4.5 9.9 10.1 9.9s10.2-4.4 10.2-9.9-4.6-10-10.2-10c-1.9 0-3.6 0.5-5.1 1.4v-10.3h-5v18.9zm10.1 5c-2.8 0-5.1-2.3-5.1-5 0-2.8 2.3-5.1 5.1-5.1 2.9 0 5.1 2.3 5.1 5.1 0 2.7-2.2 5-5.1 5z"/>
	<path class="st1" d="m-31.2 160.5c1.2 0 2.4-0.2 3.3-0.7l9-5.1v0.3 4.5c0 1-0.8 2.5-1.8 3.1l-8.7 4.9c-1 0.6-2.7 0.6-3.6 0l-8.8-4.9c-0.9-0.6-1.8-2.1-1.8-3.1v-4.9l9.1 5.2c0.9 0.5 2.1 0.7 3.3 0.7zm-0.4-15l-1.6-2.6 4.5 1-2.9 1.6zm23.4-2.4l-19.7-11.3c-1.8-1.1-4.7-1.1-6.6 0l-19.7 11.3c-1.1 0.6-1.8 1.6-1.8 2.7 0 1 0.7 2 1.8 2.7l7.7 4.4v6.6c0 2.1 1.4 4.5 3.3 5.6l8.7 4.9c0.9 0.6 2.1 0.8 3.3 0.8s2.3-0.2 3.3-0.8l8.7-4.9c1.9-1.1 3.3-3.5 3.3-5.6v-4.5c0-2.1-1.4-4.5-3.3-5.6l-7.6-4.3 1.4-0.8c0.4-0.2 0.6-0.6 0.5-1s-0.4-0.8-0.8-0.8l-9.4-2c-0.4 0-0.8 0.1-1 0.4s-0.2 0.8 0 1.1l3.3 5.3c0.2 0.3 0.5 0.5 0.8 0.5 0.2 0 0.4 0 0.5-0.1l1.8-1 9 5.2c0.1 0.1 0.2 0.1 0.3 0.2l-9 5.2c-0.9 0.5-2.7 0.5-3.6-0.1l-19.7-11.2c-0.2-0.1-0.3-0.2-0.3-0.2 0-0.1 0.1-0.2 0.3-0.2l19.7-11.3c0.9-0.5 2.7-0.5 3.6 0l19.7 11.3c0.2 0 0.3 0.1 0.3 0.2 0 0-0.1 0.1-0.3 0.2l-3.6 2.1c-0.7 0.4-0.9 1.3-0.5 1.9 0.4 0.7 1.3 1 2 0.6l3.6-2.1c1.2-0.7 1.8-1.7 1.8-2.7 0-1.1-0.6-2.1-1.8-2.7z" shape-rendering="optimizeQuality"/>
</svg>